<?xml version="1.0" encoding="utf-8"?>
<!-- Generator: Adobe Illustrator 27.5.0, SVG Export Plug-In . SVG Version: 6.00 Build 0)  -->
<svg version="1.1" xmlns="http://www.w3.org/2000/svg" xmlns:xlink="http://www.w3.org/1999/xlink" x="0px" y="0px"
	 viewBox="0 0 500 500" style="enable-background:new 0 0 500 500;" xml:space="preserve">
<g id="Floor">
	<ellipse id="Floor_9_" style="fill:#F5F5F5;" cx="251.124" cy="316.801" rx="238.528" ry="140.13"/>
</g>
<g id="Shadows">
	<path id="Shadow_14_" style="fill:#E0E0E0;" d="M93.457,371.252c5.9,1.164,12.09,0.859,18.017,2.046
		c4.07,0.815,7.964,2.323,11.83,3.833c3.462,1.352,6.921,2.712,10.377,4.078c0.689,0.273,8.967,3.129,8.967,3.524
		c14.01,5.218,28.226,12.724,43.637,11.823c3.634-0.212,7.155-1.938,9.549-4.68c2.394-2.742,3.629-6.464,3.35-10.093
		c-0.226-2.938-1.394-5.835-0.964-8.749c1.153-7.821,8.329-7.013,14.099-5.677c3.368,0.78,6.694,1.731,9.983,2.79
		c8.658,2.788,17.78,5.388,24.665,11.652c4.432,4.032,8.7,5.632,14.691,6.304c4.177,0.469,8.289,0.73,12.291,2.117
		c3.947,1.368,7.377,4,11.029,6.021c9.894,5.475,22.904,4.735,32.113-1.827c1.547-1.102,3.137-2.718,2.834-4.593
		c-0.732-4.52-8.304-5.441-11.511-7.344c-5.798-3.441-11.616-6.845-17.479-10.173c-11.725-6.657-23.593-13.061-35.593-19.207
		c-12.826-6.569-25.832-12.856-39.38-17.766c-6.676-2.42-14.285-4.457-20.666-1.341c-5.146,2.513-7.176,7.279-10.517,11.519
		c-3.106,3.942-7.137,8.017-11.706,10.232c-3.64,1.764-7.775,2.175-11.816,2.357c-13.406,0.603-26.827-1.015-40.022-3.46
		c-5.588-1.035-11.226-2.225-16.898-1.879c-6.08,0.371-16.042,1.935-19.362,7.803c-0.525,0.927-1.017,1.906-1.13,2.966
		c-0.184,1.728,0.697,3.446,1.984,4.613c1.287,1.167,2.936,1.856,4.598,2.361C91.426,370.806,92.437,371.051,93.457,371.252z"/>
	<ellipse id="Shadow_9_" style="fill:#E0E0E0;" cx="396.427" cy="309.249" rx="21.591" ry="12.465"/>
	<path id="Shadow_15_" style="fill:#E0E0E0;" d="M379.709,388.548l-3.526-2.036c-2.392-1.381-2.391-3.619,0-5l7.856-4.536
		l-28.435-16.417l-7.856,4.536c-2.391,1.381-6.269,1.381-8.66,0l-3.526-2.036c-2.391-1.381-2.392-3.619,0-5l23.835-13.762
		c2.391-1.381,6.269-1.381,8.66,0l3.526,2.036c2.392,1.381,2.392,3.619,0,5l-8.675,5.009l28.435,16.417l8.674-5.009
		c2.391-1.381,6.269-1.381,8.66,0l3.527,2.036c2.391,1.381,2.391,3.619,0,5l-23.836,13.762
		C385.978,389.929,382.1,389.929,379.709,388.548z"/>
</g>
<g id="Plants">
	<g id="Plants_6_">
		<g id="XMLID_1491_">
			<path id="XMLID_1509_" style="fill:#f73c4d;" d="M440.067,249.228l-9.526-5.5c0,0-2.334-20.402-0.781-36.202
				c2.182-22.202,16.52-48.917,33.626-42.643c17.105,6.274-7.843,28.885-13.396,47.717
				C444.436,231.431,440.067,249.228,440.067,249.228z"/>
			<path id="XMLID_1508_" style="opacity:0.15;" d="M440.067,249.228l-9.526-5.5c0,0-2.334-20.402-0.781-36.202
				c2.182-22.202,16.52-48.917,33.626-42.643c17.105,6.274-7.843,28.885-13.396,47.717
				C444.436,231.431,440.067,249.228,440.067,249.228z"/>
			<path id="XMLID_1506_" style="fill:#FFFFFF;" d="M435.057,246.912c0.006,0,0.013,0,0.02,0c0.318-0.011,0.568-0.277,0.557-0.596
				c-1.673-49.333,22.885-74.149,23.133-74.393c0.227-0.224,0.23-0.589,0.006-0.815c-0.226-0.227-0.591-0.23-0.816-0.006
				c-0.252,0.249-25.166,25.421-23.477,75.255C434.491,246.667,434.747,246.912,435.057,246.912z"/>
		</g>
		<g id="XMLID_1480_">
			<path id="XMLID_1489_" style="fill:#f73c4d;" d="M446.056,252.658l-6.779-3.914c0,0-1.153-14,5.711-31.007
				c5.975-14.806,20.802-27.089,28.259-24.508c7.457,2.581,7.272,7.869,3.636,13.416
				C473.248,212.191,451.129,225.413,446.056,252.658z"/>
			<path id="XMLID_1487_" style="fill:#FFFFFF;" d="M442.481,251.17h0.003c0.318-0.002,0.576-0.26,0.574-0.579
				c-0.134-31.192,29.154-52.274,29.45-52.484c0.259-0.184,0.322-0.543,0.137-0.804c-0.182-0.259-0.541-0.324-0.804-0.137
				c-0.3,0.213-30.074,21.644-29.937,53.43C441.906,250.913,442.163,251.17,442.481,251.17z"/>
		</g>
	</g>
	<g id="Plants_7_">
		<g id="XMLID_1999_">
			<g id="XMLID_2004_">
				<path id="XMLID_2005_" style="fill:#f73c4d;" d="M76.207,240.412l8.033-4.641c0,0,4.781-19.864,2.876-37.738
					c-2.679-25.13-19.22-34.586-25.511-32.419c-6.29,2.167-8.112,9.48,2.296,24.447C70.042,198.892,77.585,217.285,76.207,240.412z"
					/>
			</g>
			<g id="XMLID_2002_" style="opacity:0.15;">
				<path id="XMLID_2003_" d="M76.207,240.412l8.033-4.641c0,0,4.781-19.864,2.876-37.738c-2.679-25.13-19.22-34.586-25.511-32.419
					c-6.29,2.167-8.112,9.48,2.296,24.447C70.042,198.892,77.585,217.285,76.207,240.412z"/>
			</g>
			<g id="XMLID_2000_">
				<path id="XMLID_2001_" style="fill:#FFFFFF;" d="M79.536,230.654c-0.026-0.001-0.051-0.005-0.077-0.009
					c-0.302-0.058-0.501-0.349-0.443-0.651c4.403-23.179-3.694-49.225-13.721-60.063c-0.209-0.225-0.195-0.579,0.031-0.787
					c0.226-0.206,0.579-0.195,0.787,0.031c10.21,11.036,18.465,37.507,13.997,61.027C80.058,230.477,79.809,230.667,79.536,230.654z
					"/>
			</g>
		</g>
		<g id="XMLID_1991_">
			<g id="XMLID_1996_">
				<path id="XMLID_1998_" style="fill:#f73c4d;" d="M55.166,252.564c-1.269,0.646-4.643-2.243-5.584-2.945
					c-1.61-1.202-2.881-2.854-3.688-4.69c-0.939-2.137-1.089-4.384-0.646-6.673c0.23-1.187,0.623-2.336,1.015-3.48
					c0.385-1.123,0.77-2.246,1.155-3.369c0.38-1.108,0.765-2.255,0.675-3.423c-0.181-2.353-2.174-4.096-3.99-5.604
					c-2.008-1.668-4.077-3.84-3.923-6.654c0.119-2.171,1.345-4.132,2.777-5.769c1.432-1.637,3.105-3.062,4.412-4.8
					c0.941-1.251,1.701-2.738,1.637-4.303c-0.04-0.972-0.395-1.904-0.815-2.781c-0.902-1.883-2.128-3.628-2.715-5.632
					c-0.586-2.004-0.365-4.448,1.243-5.779c1.32-1.093,3.202-1.16,4.904-0.961c1.575,0.184,3.082,0.975,4.425,1.813
					c4.344,2.71,6.627,8.132,11.273,10.283c1.792,0.83,3.788,1.092,5.669,1.692c1.881,0.6,3.776,1.672,4.57,3.48
					c1.566,3.565-1.881,7.687-0.844,11.439c0.918,3.321,4.029,4.731,5.663,7.764c0.715,1.327,0.819,2.824,0.618,4.318
					c-0.341,2.528-0.807,4.372-2.167,7.134c-1.124,2.282-4.291,6.596-4.291,6.596S55.36,252.465,55.166,252.564z"/>
			</g>
			<g id="XMLID_1994_">
				<path id="XMLID_1995_" style="fill:#FFFFFF;" d="M67.461,246.156c-0.007,0-0.015-0.001-0.015-0.001
					c-0.314-0.029-0.539-0.301-0.512-0.607c2.034-22.046-7.146-46.962-14.358-54.43c-0.213-0.221-0.208-0.574,0.014-0.788
					c0.222-0.213,0.574-0.206,0.788,0.014c7.357,7.618,16.728,32.949,14.667,55.306C68.016,245.95,67.757,246.171,67.461,246.156z"
					/>
			</g>
			<g id="XMLID_1992_">
				<path id="XMLID_1993_" style="fill:#FFFFFF;" d="M65.271,218.973c-0.054-0.003-0.109-0.013-0.163-0.033
					c-6.987-2.552-15.815-3.385-15.902-3.393c-0.307-0.029-0.532-0.3-0.504-0.606c0.028-0.306,0.273-0.536,0.606-0.504
					c0.09,0.009,9.057,0.854,16.182,3.457c0.289,0.105,0.438,0.425,0.332,0.714C65.736,218.842,65.509,218.984,65.271,218.973z"/>
			</g>
		</g>
	</g>
</g>
<g id="Dumbbell_2_">
	<g id="Dumbbell_1_">
		<g id="XMLID_480_">
			<path id="XMLID_485_" style="fill:#455A64;" d="M365.217,331.325L365.217,331.325c-1.874-6.126-9.53-11.195-16.69-9.19
				l0.003,0.002c-1.029,0.279-2.109,0.732-3.224,1.375c-6.943,4.005-12.57,13.753-12.57,21.772c0,1.499,0.197,2.83,0.562,3.979
				l-0.002-0.001c1.874,6.127,9.531,11.166,16.69,9.161l-0.003-0.002c1.027-0.28,2.105-0.733,3.217-1.375
				c6.942-4.008,12.57-13.756,12.57-21.772C365.77,333.789,365.577,332.467,365.217,331.325z"/>
			<path id="XMLID_483_" style="fill:#37474F;" d="M353.2,357.047c6.942-4.008,12.57-13.756,12.57-21.772
				c0-8.016-5.628-11.268-12.57-7.264c-6.943,4.005-12.57,13.753-12.57,21.772C340.63,357.803,346.258,361.055,353.2,357.047z"/>
			<path id="XMLID_482_" style="fill:#455A64;" d="M353.2,336.904c2.67-1.542,4.835-0.292,4.835,2.791
				c0,3.083-2.165,6.832-4.835,8.374s-4.835,0.292-4.835-2.791C348.365,342.195,350.53,338.446,353.2,336.904z"/>
			<path style="fill:#37474F;" d="M354.854,341.53c0,1.055-0.737,2.338-1.652,2.871c-0.426,0.248-0.819,0.286-1.112,0.146
				c-0.045-0.019-0.083-0.044-0.121-0.07c-0.267-0.191-0.426-0.546-0.426-1.035c0-1.055,0.743-2.338,1.658-2.871
				c0.426-0.248,0.813-0.286,1.105-0.146l0.121,0.07C354.695,340.679,354.854,341.035,354.854,341.53z"/>
		</g>
		<path style="fill:#FAFAFA;" d="M381.411,356.863c0,1.055-0.737,2.338-1.652,2.865c-0.267,0.159-0.502,0.222-0.718,0.222
			c-0.197,0-0.375-0.057-0.553-0.159l-26.397-15.244c-0.045-0.019-0.083-0.044-0.121-0.07c-0.267-0.191-0.426-0.546-0.426-1.035
			c0-1.055,0.743-2.338,1.658-2.871c0.426-0.248,0.813-0.286,1.105-0.146l0.121,0.07l26.398,15.237
			C381.201,355.948,381.411,356.272,381.411,356.863z"/>
		<g id="XMLID_475_">
			<path id="XMLID_479_" style="fill:#455A64;" d="M407.323,355.628L407.323,355.628c-1.874-6.126-9.53-11.195-16.69-9.19
				l0.003,0.002c-1.029,0.279-2.109,0.732-3.224,1.375c-6.943,4.005-12.57,13.753-12.57,21.772c0,1.499,0.197,2.83,0.562,3.979
				l-0.002-0.001c1.874,6.127,9.531,11.166,16.69,9.161l-0.003-0.001c1.027-0.28,2.105-0.733,3.217-1.375
				c6.943-4.008,12.57-13.756,12.57-21.772C407.876,358.092,407.682,356.77,407.323,355.628z"/>
			<path id="XMLID_478_" style="fill:#37474F;" d="M395.306,381.35c6.942-4.008,12.57-13.756,12.57-21.772
				c0-8.016-5.628-11.268-12.57-7.264c-6.942,4.005-12.57,13.753-12.57,21.772C382.735,382.106,388.363,385.358,395.306,381.35z"/>
			<path id="XMLID_476_" style="fill:#455A64;" d="M395.305,361.207c2.67-1.542,4.835-0.292,4.835,2.791
				c0,3.083-2.165,6.832-4.835,8.374c-2.67,1.542-4.835,0.292-4.835-2.791C390.47,366.497,392.635,362.748,395.305,361.207z"/>
			<path style="fill:#37474F;" d="M396.96,365.833c0,1.055-0.737,2.338-1.652,2.871c-0.426,0.248-0.82,0.286-1.112,0.146
				c-0.045-0.019-0.083-0.044-0.121-0.07c-0.267-0.191-0.426-0.546-0.426-1.035c0-1.055,0.743-2.338,1.658-2.872
				c0.426-0.248,0.813-0.286,1.105-0.146l0.121,0.07C396.801,364.982,396.96,365.337,396.96,365.833z"/>
		</g>
		<path style="fill:#FAFAFA;" d="M400.962,368.145c0,1.055-0.737,2.338-1.652,2.865c-0.267,0.159-0.502,0.222-0.718,0.222
			c-0.197,0-0.375-0.057-0.553-0.159l-3.843-2.224c-0.045-0.019-0.083-0.044-0.121-0.07c-0.267-0.191-0.426-0.546-0.426-1.035
			c0-1.055,0.743-2.338,1.658-2.872c0.426-0.248,0.813-0.286,1.105-0.146l0.121,0.07l3.843,2.217
			C400.752,367.231,400.962,367.555,400.962,368.145z"/>
		<path style="fill:#E0E0E0;" d="M400.962,368.135c0,1.055-0.737,2.338-1.652,2.871c-0.426,0.248-0.82,0.286-1.112,0.146
			c-0.044-0.019-0.083-0.044-0.121-0.07c-0.267-0.191-0.426-0.546-0.426-1.035c0-1.055,0.743-2.338,1.658-2.871
			c0.426-0.248,0.813-0.286,1.105-0.146l0.121,0.07C400.803,367.284,400.962,367.639,400.962,368.135z"/>
	</g>
</g>
<g id="Bottle">
	<g id="Water_1_">
		<g id="XMLID_498_">
			<path style="fill:#f73c4d;" d="M411.624,282.608c-0.486-2.173-1.602-4.493-2.526-6.522c-0.108-0.237-0.224-0.474-0.344-0.712
				c-2.018-3.986-2.006-8.702,0.181-12.597c0.075-0.134,0.15-0.268,0.223-0.401c1.362-2.474,1.949-4.598,1.952-7.416
				c0.008-2.149-1.399-5.363-4.233-7.011c-0.615-0.363-1.275-0.681-1.965-0.954c-1.275-0.516-2.134-1.729-2.129-3.111l0.015-3.839
				l-12.292-0.048l-0.015,3.839c-0.005,1.382-0.874,2.589-2.154,3.095c-0.692,0.268-1.354,0.581-1.972,0.939
				c-2.846,1.627-4.279,4.83-4.287,6.978c-0.018,2.818,0.552,4.946,1.894,7.431c0.068,0.125,0.137,0.25,0.206,0.376
				c2.167,3.918,2.151,8.644,0.103,12.626c-0.122,0.237-0.238,0.473-0.348,0.709c-0.939,2.021-2.082,4.333-2.577,6.502
				c-0.478,2.104-0.592,4.363-0.601,6.615l-0.069,17.883c-0.009,2.324,1.513,4.647,4.567,6.424c2.497,1.451,5.637,2.322,8.883,2.594
				c1.474,0.127,2.972,0.133,4.438,0.017c3.241-0.263,6.354-1.101,8.846-2.525c3.069-1.754,4.608-4.064,4.617-6.381l0.05-12.935
				c0.006-1.612,0.07-3.296,0.076-4.981C412.174,286.96,412.086,284.708,411.624,282.608z"/>
			<path style="opacity:0.3;" d="M411.624,282.608c-0.486-2.173-1.602-4.493-2.526-6.522c-0.108-0.237-0.224-0.474-0.344-0.712
				c-2.018-3.986-2.006-8.702,0.181-12.597c0.075-0.134,0.15-0.268,0.223-0.401c1.362-2.474,1.949-4.598,1.952-7.416
				c0.008-2.149-1.399-5.363-4.233-7.011c-0.615-0.363-1.275-0.681-1.965-0.954c-1.275-0.516-2.134-1.729-2.129-3.111l0.015-3.839
				l-12.292-0.048l-0.015,3.839c-0.005,1.382-0.874,2.589-2.154,3.095c-0.692,0.268-1.354,0.581-1.972,0.939
				c-2.846,1.627-4.279,4.83-4.287,6.978c-0.018,2.818,0.552,4.946,1.894,7.431c0.068,0.125,0.137,0.25,0.206,0.376
				c2.167,3.918,2.151,8.644,0.103,12.626c-0.122,0.237-0.238,0.473-0.348,0.709c-0.939,2.021-2.082,4.333-2.577,6.502
				c-0.478,2.104-0.592,4.363-0.601,6.615l-0.069,17.883c-0.009,2.324,1.513,4.647,4.567,6.424c2.497,1.451,5.637,2.322,8.883,2.594
				c1.474,0.127,2.972,0.133,4.438,0.017c3.241-0.263,6.354-1.101,8.846-2.525c3.069-1.754,4.608-4.064,4.617-6.381l0.05-12.935
				c0.006-1.612,0.07-3.296,0.076-4.981C412.174,286.96,412.086,284.708,411.624,282.608z"/>
			<path style="opacity:0.1;" d="M408.935,262.777c0.075-0.134,0.15-0.268,0.223-0.401c1.172-2.129,1.767-4.001,1.913-6.276
				c-0.284,0.89-0.678,1.751-1.166,2.54c-1.409,2.281-3.462,4.083-5.539,5.779c-2.106,1.719-4.446,3.674-4.708,6.379
				c-0.253,2.619,1.593,4.998,3.695,6.581c2.101,1.583,4.56,2.698,6.449,4.529c0.823,0.798,1.509,1.716,2.142,2.675
				c-0.08-0.669-0.177-1.331-0.319-1.976c-0.486-2.173-1.602-4.493-2.526-6.522c-0.109-0.237-0.224-0.474-0.344-0.711
				C406.736,271.389,406.748,266.673,408.935,262.777z"/>
			<g>
				<path id="XMLID_521_" style="fill:#f73c4d;" d="M388.43,244.282l-0.008,2.066c-0.013,1.232,0.801,2.475,2.434,3.429
					c3.25,1.893,8.534,1.913,11.807,0.046c0.812-0.467,1.43-1.008,1.838-1.589c0.408-0.574,0.612-1.189,0.615-1.805l0.008-2.099
					c0.001-0.186-0.015-0.373-0.063-0.56c-0.199-1.046-0.989-2.062-2.363-2.862c-0.04-0.024-0.081-0.049-0.121-0.065
					c-3.267-1.828-8.462-1.824-11.686,0.019c-1.381,0.789-2.187,1.799-2.394,2.835C388.447,243.893,388.43,244.088,388.43,244.282z"
					/>
				<path id="XMLID_520_" style="opacity:0.1;" d="M388.43,244.282l-0.008,2.066c-0.013,1.232,0.801,2.475,2.434,3.429
					c3.25,1.893,8.534,1.913,11.807,0.046c0.812-0.467,1.43-1.008,1.838-1.589c0.408-0.574,0.612-1.189,0.615-1.805l0.008-2.099
					c0.001-0.186-0.015-0.373-0.063-0.56c-0.199-1.046-0.989-2.062-2.363-2.862c-0.04-0.024-0.081-0.049-0.121-0.065
					c-3.267-1.828-8.462-1.824-11.686,0.019c-1.381,0.789-2.187,1.799-2.394,2.835C388.447,243.893,388.43,244.088,388.43,244.282z"
					/>
				<path id="XMLID_519_" style="opacity:0.2;" d="M402.667,247.727c3.267-1.869,3.279-4.921,0.027-6.815
					c-3.253-1.895-8.538-1.915-11.805-0.046c-3.267,1.869-3.279,4.921-0.026,6.815C394.115,249.576,399.4,249.596,402.667,247.727z"
					/>
				<path id="XMLID_504_" style="fill:#f73c4d;" d="M388.439,241.872l-0.005,1.243c-0.001,0.195,0.015,0.389,0.063,0.584
					c0.198,1.038,0.997,2.054,2.371,2.854c1.455,0.849,3.318,1.318,5.213,1.406c2.358,0.122,4.783-0.33,6.594-1.368
					c0.812-0.467,1.422-0.999,1.837-1.581c0.285-0.396,0.465-0.817,0.548-1.238c0.049-0.186,0.066-0.381,0.067-0.567l0.005-1.284
					c0.005-1.24-0.801-2.475-2.426-3.421c-0.146-0.081-0.291-0.163-0.445-0.237c-3.276-1.658-8.243-1.596-11.362,0.191
					C389.259,239.395,388.436,240.632,388.439,241.872z"/>
				<path id="XMLID_502_" style="opacity:0.1;" d="M388.439,241.872l-0.005,1.243c-0.001,0.195,0.015,0.389,0.063,0.584
					c0.198,1.038,0.997,2.054,2.371,2.854c1.455,0.849,3.318,1.318,5.213,1.406c2.358,0.122,4.783-0.33,6.594-1.368
					c0.812-0.467,1.422-0.999,1.837-1.581c0.285-0.396,0.465-0.817,0.548-1.238c0.049-0.186,0.066-0.381,0.067-0.567l0.005-1.284
					c0.005-1.24-0.801-2.475-2.426-3.421c-0.146-0.081-0.291-0.163-0.445-0.237c-3.276-1.658-8.243-1.596-11.362,0.191
					C389.259,239.395,388.436,240.632,388.439,241.872z"/>
				<path style="fill:#f73c4d;" d="M388.439,241.83c-0.01,2.65,3.718,4.813,8.328,4.831c4.61,0.018,8.355-2.116,8.366-4.766
					c0.01-2.65-3.718-4.813-8.328-4.831C392.195,237.046,388.449,239.18,388.439,241.83z"/>
			</g>
		</g>
		<path id="XMLID_489_" style="fill:#f73c4d;" d="M393.913,236.908l-0.017,4.323c0,0.067,0.005,0.135,0.022,0.202
			c0.069,0.36,0.345,0.712,0.822,0.989c0.504,0.294,1.15,0.457,1.807,0.487c0.817,0.042,1.658-0.114,2.285-0.474
			c0.281-0.162,0.493-0.346,0.637-0.548c0.099-0.137,0.161-0.283,0.19-0.429c0.017-0.064,0.023-0.132,0.023-0.197l0.017-4.337
			c0.002-0.43-0.277-0.858-0.841-1.186c-0.051-0.028-0.101-0.056-0.154-0.082c-1.135-0.574-2.857-0.553-3.938,0.066
			C394.197,236.049,393.911,236.478,393.913,236.908z"/>
		<path id="XMLID_487_" style="opacity:0.1;" d="M393.913,236.908l-0.017,4.323c0,0.067,0.005,0.135,0.022,0.202
			c0.069,0.36,0.345,0.712,0.822,0.989c0.504,0.294,1.15,0.457,1.807,0.487c0.817,0.042,1.658-0.114,2.285-0.474
			c0.281-0.162,0.493-0.346,0.637-0.548c0.099-0.137,0.161-0.283,0.19-0.429c0.017-0.064,0.023-0.132,0.023-0.197l0.017-4.337
			c0.002-0.43-0.277-0.858-0.841-1.186c-0.051-0.028-0.101-0.056-0.154-0.082c-1.135-0.574-2.857-0.553-3.938,0.066
			C394.197,236.049,393.911,236.478,393.913,236.908z"/>
		<path style="fill:#f73c4d;" d="M393.913,236.893c-0.004,0.918,1.289,1.668,2.886,1.674c1.598,0.006,2.896-0.733,2.899-1.652
			c0.004-0.918-1.289-1.668-2.886-1.674C395.214,235.235,393.916,235.975,393.913,236.893z"/>
		<path style="opacity:0.5;fill:#f73c4d;" d="M395.778,236.9c-0.001,0.326,0.457,0.592,1.024,0.594
			c0.567,0.002,1.028-0.26,1.029-0.586c0.001-0.326-0.457-0.592-1.025-0.594S395.78,236.574,395.778,236.9z"/>
		<path style="opacity:0.3;" d="M395.778,236.9c-0.001,0.326,0.457,0.592,1.024,0.594c0.567,0.002,1.028-0.26,1.029-0.586
			c0.001-0.326-0.457-0.592-1.025-0.594S395.78,236.574,395.778,236.9z"/>
	</g>
</g>
<g id="Speech_Bubble">
	<g id="Speach_Bubble_8_">
		<g>
			<path id="XMLID_1504_" style="fill:#f73c4d;" d="M339.784,68.598l-72.542,41.893c-0.618,0.357-1.119,1.225-1.119,1.938v30.165
				c0,0.714,0.504,1.577,1.125,1.927l4.009,2.247c0.622,0.351,1.627,0.346,2.244-0.011l72.542-41.893
				c0.618-0.357,1.119-1.225,1.119-1.938V72.761c0-0.714-0.504-1.577-1.125-1.927l-4.009-2.247
				C341.407,68.236,340.402,68.241,339.784,68.598z"/>
			<path id="XMLID_1502_" style="fill:#f73c4d;" d="M272.383,146.112v-30.165c0-0.714,0.501-1.581,1.119-1.938l72.542-41.893
				c0.618-0.357,1.119-0.068,1.119,0.646v30.165c0,0.714-0.501,1.582-1.119,1.938l-72.542,41.893
				C272.884,147.115,272.383,146.826,272.383,146.112z"/>
			<path id="XMLID_1501_" style="opacity:0.2;" d="M273.502,146.758c-0.596,0.346-1.684,0.358-2.246,0.013l-4.007-2.252
				c-0.62-0.346-1.127-1.209-1.127-1.923v-30.168c0-0.372,0.14-0.781,0.357-1.142l6.234,3.559c-0.207,0.346-0.331,0.744-0.331,1.101
				v30.163C272.383,146.763,272.843,147.14,273.502,146.758z"/>
			<path id="XMLID_1495_" style="opacity:0.4;fill:#FFFFFF;" d="M347.148,72.559c-0.088-0.563-0.548-0.765-1.106-0.445
				l-72.538,41.895c-0.31,0.181-0.589,0.486-0.791,0.837l-6.24-3.559c0.202-0.336,0.47-0.625,0.77-0.796l72.543-41.895
				c0.615-0.357,1.618-0.362,2.243-0.01l4.007,2.247C346.6,71.153,347.07,71.892,347.148,72.559z"/>
		</g>
		<g>
			<path id="XMLID_1494_" style="fill:#f73c4d;" d="M263.056,135.948c-0.703-0.419-5.965-3.381-6.135-3.48
				c-0.517-0.315-0.703-1.08-0.222-1.597l9.521-7.88l6.162,3.503l-9.516,7.885C262.401,134.875,262.586,135.607,263.056,135.948z"/>
			<path id="XMLID_1493_" style="opacity:0.1;" d="M263.056,135.948c-0.703-0.419-5.965-3.381-6.135-3.48
				c-0.517-0.315-0.703-1.08-0.222-1.597l9.521-7.88l6.162,3.503l-9.516,7.885C262.401,134.875,262.586,135.607,263.056,135.948z"/>
			<path id="XMLID_1492_" style="fill:#f73c4d;" d="M272.383,126.496l-9.519,7.881c-0.645,0.692-0.172,1.641,0.64,1.716l8.879-1.038
				L272.383,126.496z"/>
		</g>
		<g>
			<path style="fill:#FAFAFA;" d="M278.079,123.695c-0.061-0.104-0.082-0.245-0.064-0.425c0.017-0.179,0.064-0.345,0.143-0.498
				l2.791-5.42c0.069-0.133,0.154-0.289,0.254-0.47c0.099-0.18,0.214-0.308,0.344-0.383l1.584-0.914
				c0.096-0.055,0.178-0.041,0.247,0.042c0.069,0.083,0.104,0.209,0.104,0.378v14.911c0,0.169-0.034,0.335-0.104,0.499
				c-0.069,0.163-0.151,0.272-0.247,0.327l-1.701,0.982c-0.095,0.055-0.178,0.041-0.246-0.042c-0.069-0.083-0.103-0.21-0.103-0.379
				v-10.087l-1.546,2.969c-0.077,0.153-0.165,0.246-0.26,0.277c-0.095,0.033-0.173-0.003-0.233-0.107L278.079,123.695z"/>
			<path style="fill:#FAFAFA;" d="M288.05,128.279c0,0.169-0.034,0.335-0.103,0.499c-0.069,0.163-0.151,0.272-0.246,0.327
				l-1.702,0.982c-0.095,0.055-0.177,0.041-0.246-0.042c-0.069-0.083-0.104-0.21-0.104-0.378v-3.023c0-0.17,0.034-0.335,0.104-0.499
				c0.069-0.162,0.151-0.272,0.246-0.327l1.702-0.983c0.095-0.055,0.177-0.039,0.246,0.043c0.069,0.084,0.103,0.21,0.103,0.379
				V128.279z"/>
			<path style="fill:#FAFAFA;" d="M292.425,125.753c0,0.169-0.034,0.335-0.103,0.499c-0.069,0.163-0.151,0.272-0.246,0.327
				l-1.702,0.982c-0.095,0.055-0.177,0.04-0.246-0.043c-0.069-0.083-0.104-0.209-0.104-0.378v-3.023c0-0.17,0.034-0.336,0.104-0.5
				c0.069-0.162,0.151-0.272,0.246-0.327l1.702-0.982c0.095-0.055,0.177-0.04,0.246,0.042c0.069,0.084,0.103,0.21,0.103,0.379
				V125.753z"/>
			<path style="fill:#FAFAFA;" d="M296.801,123.227c0,0.169-0.035,0.335-0.104,0.498c-0.069,0.163-0.151,0.272-0.246,0.327
				l-1.701,0.982c-0.095,0.055-0.177,0.041-0.246-0.043c-0.069-0.083-0.104-0.209-0.104-0.378v-3.023
				c0-0.17,0.035-0.335,0.104-0.499c0.069-0.162,0.151-0.272,0.246-0.327l1.701-0.982c0.095-0.055,0.177-0.04,0.246,0.043
				c0.069,0.084,0.104,0.209,0.104,0.379V123.227z"/>
			<path style="fill:#FAFAFA;" d="M305.98,107.586c0,0.446-0.025,0.892-0.078,1.338c-0.052,0.445-0.141,0.9-0.266,1.364
				c-0.126,0.465-0.29,0.949-0.494,1.451c-0.202,0.502-0.452,1.031-0.746,1.585l-1.817,3.496l3.259-1.882
				c0.095-0.055,0.177-0.041,0.246,0.042c0.069,0.084,0.104,0.21,0.104,0.378v2.447c0,0.169-0.035,0.335-0.104,0.499
				c-0.069,0.163-0.151,0.272-0.246,0.327l-6.855,3.958c-0.096,0.055-0.178,0.041-0.247-0.042c-0.069-0.083-0.104-0.21-0.104-0.378
				v-1.985c0-0.246,0.028-0.508,0.085-0.787c0.056-0.278,0.152-0.543,0.291-0.791l3.883-7.181c0.303-0.575,0.493-1.05,0.571-1.426
				c0.077-0.376,0.116-0.718,0.116-1.025c0-0.107-0.011-0.251-0.032-0.432c-0.022-0.18-0.071-0.343-0.149-0.491
				c-0.078-0.147-0.188-0.249-0.33-0.305c-0.143-0.056-0.336-0.014-0.578,0.125c-0.243,0.14-0.439,0.327-0.591,0.561
				c-0.151,0.234-0.269,0.466-0.351,0.698c-0.083,0.232-0.143,0.456-0.182,0.67c-0.039,0.215-0.067,0.374-0.085,0.476
				c-0.043,0.241-0.11,0.422-0.201,0.544c-0.09,0.122-0.197,0.217-0.317,0.287l-1.597,0.922c-0.079,0.046-0.145,0.034-0.202-0.034
				c-0.057-0.067-0.084-0.17-0.084-0.309c0.008-0.651,0.086-1.339,0.233-2.063c0.148-0.723,0.37-1.433,0.669-2.128
				c0.299-0.696,0.671-1.333,1.116-1.914c0.445-0.581,0.972-1.045,1.577-1.395c0.572-0.33,1.076-0.472,1.513-0.424
				c0.438,0.048,0.803,0.238,1.098,0.568c0.294,0.33,0.517,0.778,0.669,1.344C305.905,106.241,305.98,106.878,305.98,107.586z"/>
			<path style="fill:#FAFAFA;" d="M310.472,115.333c0,0.169-0.034,0.336-0.104,0.499c-0.069,0.163-0.151,0.272-0.246,0.327
				l-1.702,0.982c-0.095,0.055-0.177,0.041-0.246-0.042c-0.069-0.083-0.103-0.21-0.103-0.378v-3.023c0-0.17,0.034-0.335,0.103-0.5
				c0.069-0.162,0.151-0.272,0.246-0.327l1.702-0.982c0.095-0.055,0.177-0.039,0.246,0.043c0.069,0.084,0.104,0.209,0.104,0.379
				V115.333z"/>
			<path style="fill:#FAFAFA;" d="M314.847,112.808c0,0.169-0.034,0.335-0.104,0.498c-0.069,0.163-0.151,0.272-0.246,0.327
				l-1.702,0.982c-0.095,0.055-0.177,0.041-0.246-0.042c-0.069-0.083-0.103-0.21-0.103-0.378v-3.023c0-0.17,0.034-0.335,0.103-0.499
				c0.069-0.162,0.151-0.272,0.246-0.327l1.702-0.982c0.095-0.055,0.177-0.04,0.246,0.042c0.069,0.084,0.104,0.209,0.104,0.379
				V112.808z"/>
			<path style="fill:#FAFAFA;" d="M319.223,110.281c0,0.169-0.035,0.335-0.105,0.499c-0.069,0.163-0.151,0.272-0.246,0.327
				l-1.701,0.982c-0.095,0.055-0.177,0.041-0.246-0.042c-0.069-0.083-0.104-0.209-0.104-0.378v-3.023c0-0.17,0.035-0.336,0.104-0.5
				c0.069-0.162,0.151-0.272,0.246-0.327l1.701-0.982c0.095-0.055,0.177-0.04,0.246,0.043c0.069,0.084,0.105,0.209,0.105,0.379
				V110.281z"/>
			<path style="fill:#FAFAFA;" d="M327.935,89.717c0.095-0.055,0.177-0.041,0.246,0.042c0.069,0.083,0.104,0.21,0.104,0.378v2.447
				c0,0.169-0.03,0.34-0.09,0.513c-0.061,0.174-0.117,0.321-0.169,0.444l-1.571,3.722c0.675-0.081,1.225,0.121,1.648,0.607
				c0.425,0.485,0.637,1.329,0.637,2.529c0,1.739-0.338,3.242-1.013,4.509s-1.619,2.25-2.831,2.95
				c-0.623,0.36-1.175,0.547-1.655,0.564c-0.479,0.016-0.885-0.097-1.214-0.338s-0.582-0.583-0.76-1.027
				c-0.177-0.444-0.27-0.947-0.279-1.513c0-0.138,0.028-0.273,0.085-0.406c0.057-0.132,0.123-0.222,0.201-0.267l1.636-0.944
				c0.182-0.105,0.32-0.112,0.416-0.021c0.095,0.092,0.201,0.188,0.318,0.29c0.116,0.102,0.268,0.172,0.454,0.21
				c0.186,0.039,0.452-0.041,0.798-0.241c0.416-0.24,0.76-0.562,1.033-0.966c0.272-0.402,0.408-0.873,0.408-1.413
				c0-0.538-0.137-0.852-0.408-0.941c-0.273-0.088-0.617-0.014-1.033,0.226l-1.077,0.622c-0.096,0.055-0.178,0.042-0.247-0.042
				c-0.069-0.083-0.104-0.209-0.104-0.379V99.29c0-0.17,0.03-0.34,0.091-0.514c0.06-0.174,0.121-0.332,0.182-0.474l1.376-3.264
				l-3.389,1.957c-0.095,0.055-0.177,0.04-0.246-0.043c-0.069-0.083-0.104-0.209-0.104-0.378v-2.447
				c0-0.169,0.034-0.335,0.104-0.498c0.069-0.163,0.151-0.272,0.246-0.327L327.935,89.717z"/>
			<path style="fill:#FAFAFA;" d="M333.025,102.313c0,0.169-0.035,0.336-0.104,0.499c-0.069,0.163-0.151,0.272-0.246,0.327
				l-1.701,0.982c-0.095,0.055-0.177,0.041-0.246-0.042c-0.069-0.083-0.104-0.21-0.104-0.378v-3.023c0-0.17,0.035-0.335,0.104-0.5
				c0.069-0.162,0.151-0.272,0.246-0.327l1.701-0.982c0.095-0.055,0.177-0.039,0.246,0.043c0.069,0.084,0.104,0.209,0.104,0.379
				V102.313z"/>
			<path style="fill:#FAFAFA;" d="M337.4,99.787c0,0.169-0.035,0.335-0.104,0.498c-0.069,0.163-0.151,0.272-0.246,0.327
				l-1.701,0.982c-0.095,0.055-0.177,0.04-0.246-0.043c-0.069-0.083-0.104-0.21-0.104-0.378V98.15c0-0.17,0.035-0.335,0.104-0.499
				c0.069-0.162,0.151-0.272,0.246-0.327l1.701-0.983c0.095-0.055,0.177-0.039,0.246,0.043c0.069,0.084,0.104,0.209,0.104,0.379
				V99.787z"/>
			<path style="fill:#FAFAFA;" d="M341.775,97.261c0,0.169-0.034,0.335-0.104,0.499c-0.069,0.163-0.151,0.272-0.246,0.327
				l-1.702,0.982c-0.095,0.055-0.177,0.041-0.246-0.042c-0.069-0.083-0.103-0.209-0.103-0.378v-3.023c0-0.17,0.034-0.336,0.103-0.5
				c0.069-0.162,0.151-0.272,0.246-0.327l1.702-0.982c0.095-0.055,0.177-0.04,0.246,0.043c0.069,0.084,0.104,0.209,0.104,0.379
				V97.261z"/>
		</g>
	</g>
</g>
<g id="Character">
	<g id="Character_5_">
		<g style="opacity:0.3;">
			<g>
				<path d="M149.811,277.711c-0.049-0.005-0.097-0.013-0.145-0.027l-5.724-1.62c-0.42-0.119-0.664-0.555-0.544-0.974
					c0.118-0.42,0.566-0.66,0.974-0.545l5.724,1.62c0.42,0.119,0.664,0.555,0.544,0.975
					C150.537,277.51,150.182,277.744,149.811,277.711z"/>
			</g>
			<g>
				<path d="M143.939,282.146c-0.324-0.029-0.61-0.259-0.693-0.593c-0.108-0.423,0.149-0.852,0.571-0.959l5.767-1.458
					c0.424-0.105,0.852,0.149,0.958,0.572c0.108,0.423-0.149,0.852-0.571,0.959l-5.767,1.458
					C144.115,282.147,144.026,282.154,143.939,282.146z"/>
			</g>
			<g>
				<path d="M146.839,287.466c-0.182-0.017-0.358-0.096-0.494-0.236c-0.304-0.313-0.297-0.812,0.016-1.116l4.266-4.146
					c0.311-0.305,0.813-0.295,1.115,0.016c0.304,0.313,0.297,0.812-0.016,1.116l-4.266,4.146
					C147.289,287.412,147.06,287.486,146.839,287.466z"/>
			</g>
			<g>
				<path d="M152.011,290.623c-0.049-0.005-0.097-0.013-0.145-0.027c-0.42-0.119-0.663-0.555-0.544-0.974l1.62-5.724
					c0.118-0.42,0.56-0.663,0.974-0.545c0.42,0.119,0.663,0.555,0.544,0.975l-1.62,5.724
					C152.736,290.423,152.382,290.656,152.011,290.623z"/>
			</g>
		</g>
		<g>
			<path style="fill:#FFA8A7;" d="M308.229,201.817c0.168-0.097-14.292,8.253-14.292,8.253l-31.388,4.537
				c0,0-22.94-34.418-26.451-39.83c-3.511-5.413-7.611-8.875-17.123-8.868l1.797,27.459c0.297,0.887,19.272,24.259,31.782,36.981
				c4.417,4.492,7.132,5.635,14.045,3.719c17.635-4.887,38.981-19.375,40.725-23.009
				C309.582,206.355,308.061,201.914,308.229,201.817z"/>
			<g id="Dumbbell">
				<g id="XMLID_446_">
					<path id="XMLID_473_" style="fill:#455A64;" d="M302.344,184.412L302.344,184.412c1.874-6.127,9.53-11.195,16.69-9.19
						l-0.003,0.002c1.029,0.279,2.109,0.732,3.224,1.375c6.943,4.005,12.57,13.753,12.57,21.772c0,1.499-0.197,2.83-0.562,3.979
						l0.002-0.001c-1.874,6.127-9.531,11.166-16.69,9.161l0.003-0.001c-1.027-0.28-2.105-0.733-3.217-1.375
						c-6.943-4.008-12.57-13.756-12.57-21.772C301.791,186.876,301.985,185.555,302.344,184.412z"/>
					<path id="XMLID_472_" style="fill:#37474F;" d="M314.362,210.134c-6.942-4.008-12.57-13.756-12.57-21.772
						s5.628-11.268,12.57-7.264c6.942,4.005,12.57,13.753,12.57,21.772C326.932,210.89,321.304,214.142,314.362,210.134z"/>
					<path id="XMLID_447_" style="fill:#455A64;" d="M314.362,189.991c-2.67-1.542-4.835-0.292-4.835,2.791s2.165,6.832,4.835,8.374
						c2.67,1.542,4.835,0.292,4.835-2.791C319.197,195.282,317.032,191.533,314.362,189.991z"/>
					<path style="fill:#37474F;" d="M312.707,194.617c0,1.055,0.737,2.338,1.652,2.871c0.426,0.248,0.82,0.286,1.112,0.146
						c0.044-0.019,0.083-0.044,0.121-0.07c0.267-0.19,0.426-0.546,0.426-1.035c0-1.055-0.743-2.338-1.658-2.871
						c-0.426-0.248-0.813-0.286-1.105-0.146l-0.121,0.07C312.866,193.766,312.707,194.122,312.707,194.617z"/>
				</g>
				<path style="fill:#FAFAFA;" d="M286.151,209.95c0,1.055,0.737,2.338,1.652,2.865c0.267,0.159,0.502,0.222,0.718,0.222
					c0.197,0,0.375-0.057,0.553-0.159l26.397-15.244c0.044-0.019,0.083-0.044,0.121-0.07c0.267-0.19,0.426-0.546,0.426-1.035
					c0-1.055-0.743-2.338-1.658-2.871c-0.426-0.248-0.813-0.286-1.105-0.146l-0.121,0.07l-26.398,15.238
					C286.361,209.035,286.151,209.359,286.151,209.95z"/>
				<g id="XMLID_427_">
					<path id="XMLID_445_" style="fill:#455A64;" d="M260.239,208.715L260.239,208.715c1.874-6.127,9.531-11.195,16.69-9.19
						l-0.003,0.002c1.029,0.279,2.109,0.732,3.224,1.375c6.943,4.005,12.57,13.753,12.57,21.772c0,1.499-0.197,2.83-0.562,3.979
						l0.002-0.001c-1.874,6.127-9.531,11.166-16.69,9.161l0.003-0.001c-1.027-0.28-2.105-0.733-3.217-1.375
						c-6.942-4.008-12.57-13.756-12.57-21.772C259.686,211.179,259.879,209.857,260.239,208.715z"/>
					<path id="XMLID_444_" style="fill:#37474F;" d="M272.256,234.437c-6.942-4.008-12.57-13.756-12.57-21.772
						c0-8.016,5.628-11.268,12.57-7.264c6.943,4.005,12.57,13.753,12.57,21.772C284.827,235.193,279.198,238.445,272.256,234.437z"
						/>
					<path id="XMLID_430_" style="fill:#455A64;" d="M272.256,214.294c-2.67-1.542-4.835-0.292-4.835,2.791
						c0,3.083,2.165,6.832,4.835,8.374c2.67,1.542,4.835,0.292,4.835-2.791C277.091,219.585,274.926,215.835,272.256,214.294z"/>
					<path style="fill:#37474F;" d="M270.602,218.92c0,1.054,0.737,2.338,1.652,2.871c0.426,0.248,0.82,0.286,1.112,0.146
						c0.045-0.019,0.083-0.044,0.121-0.07c0.267-0.191,0.426-0.546,0.426-1.036c0-1.055-0.743-2.338-1.658-2.871
						c-0.426-0.248-0.813-0.286-1.105-0.146l-0.121,0.07C270.761,218.069,270.602,218.424,270.602,218.92z"/>
				</g>
				<path style="fill:#FAFAFA;" d="M266.599,221.232c0,1.055,0.737,2.338,1.652,2.865c0.267,0.159,0.502,0.222,0.718,0.222
					c0.197,0,0.375-0.057,0.553-0.159l3.843-2.223c0.045-0.019,0.083-0.044,0.121-0.07c0.267-0.191,0.426-0.546,0.426-1.036
					c0-1.055-0.743-2.338-1.658-2.871c-0.426-0.248-0.813-0.286-1.105-0.146l-0.121,0.07l-3.843,2.217
					C266.809,220.318,266.599,220.642,266.599,221.232z"/>
				<path style="fill:#E0E0E0;" d="M266.599,221.222c0,1.055,0.737,2.338,1.652,2.871c0.426,0.248,0.819,0.286,1.112,0.146
					c0.044-0.019,0.083-0.044,0.121-0.07c0.267-0.19,0.426-0.546,0.426-1.035c0-1.055-0.743-2.338-1.658-2.871
					c-0.426-0.248-0.813-0.286-1.105-0.146l-0.121,0.07C266.758,220.371,266.599,220.726,266.599,221.222z"/>
			</g>
			<path style="fill:#FFA8A7;" d="M299.075,218.132c6.067-4.637,11.888-4.599,10.837-15.927c-0.89-5.043-2.126-5.356-7.017-7.254
				c-2.143-0.832-4.973-1.458-6.709,0.501c-0.205,0.232-0.386,0.489-0.629,0.682c-0.465,0.37-1.088,0.453-1.676,0.54
				c-1.12,0.166-2.317,0.44-3.062,1.292c-0.567,0.648-0.787,1.541-1.345,2.196c-0.48,0.564-1.168,0.904-1.729,1.388
				c-0.879,0.759-1.428,1.899-1.432,3.061c-0.006,1.483,0.839,2.431,1.844,3.388l3.055-1.764c1.253-0.862,3.834,2.209,2.725,3.835
				C292.18,212.646,299.075,218.132,299.075,218.132z"/>
		</g>
		<g id="XMLID_751_">
			<path style="fill:#FFA8A7;" d="M228.374,240.893c1.94-7.849,2.5-27.438,2.5-27.438l-56.786,1.702c0,0,2.373,9.484,3.096,12.375
				c0.723,2.891,0.812,8.449,0.812,8.449s5.51,10.206,21.845,12.009C216.177,249.793,228.374,240.893,228.374,240.893z"/>
			<path id="XMLID_752_" style="fill:#455A64;" d="M230.874,213.455c0.064,0.621-0.328,6.554-0.328,6.554
				c-7.263,6.111-30.556,9.204-54.977,1.069l-5.182-19.992c0,0,17.585-7.718,5.709-33.616l12.765-0.99l22.667-0.572
				c5.501,0,7.446,0,7.446,0c3.46,3.263,10.102,10.525,15.328,20.281C237.272,191.731,241.056,199.845,230.874,213.455z"/>
			<path style="fill:#37474F;" d="M198.774,213.633c-10.227-2.61-12.795-9.01-13.522-13.7c0,0-1.932,13.7,12.693,16.893
				c15.417,3.365,21.757-8.843,21.757-8.843S211.116,216.783,198.774,213.633z"/>
		</g>
		<g>
			<g>
				<g>
					<path style="fill:#263238;" d="M111.691,366.09c-2.981,2.192-9.913,2.716-16.026-0.143c-6.113-2.859-8.637-10.957-7.497-17.288
						c1.38-7.669,5.171-11.865,6.137-16.478c0.967-4.613-0.035-11.018,1.454-15.123c1.416-3.901,4.507-5.886,7.002-6.882
						c2.045-0.817,4.364-0.568,6.26,0.552l1.804,1.065L111.691,366.09z"/>
				</g>
				<g>
					<path style="fill:#37474F;" d="M118.845,336.841l-4.74,14.214c0,0,2.994,10.146,1.311,12.839
						c-2.493,3.988-6.88,4.703-14.271,2.449c-8.45-2.577-10.447-10.222-10.03-16.167c0.594-8.463,8.422-14.839,7.528-22.979
						c-0.437-3.977,0.109-8.473,2.295-11.904c2.451-3.847,6.476-4.569,10.649-3.309c3.575,1.079,6.717,3.327,9.742,5.44
						c0.846,0.591,1.705,1.194,2.344,2.003c0.559,0.708,0.93,1.548,1.201,2.408c0.549,1.74,0.708,3.6,0.474,5.409
						c-0.22,1.699-1.301,2.69-2.312,4.032C121.639,333.13,120.242,334.986,118.845,336.841z"/>
				</g>
				<path style="fill:#FFA8A7;" d="M139.276,330.106c-0.294-0.112-14.774-9.372-16.338-10.067c-1.564-0.695-5.392-1.693-9.107,6.895
					c-2.647,6.118,1.163,8.376,1.163,8.376l16.944,10.096L139.276,330.106z"/>
				<path style="fill:#f73c4d;" d="M114.106,351.055c-2.029-1.054-6.319-2.486-9.879-2.207c-1.122,0.088-1.992-0.95-1.643-2.02
					l0.009-0.029c0.195-0.597,0.728-1.015,1.354-1.064c2.292-0.179,7.854-0.244,11.546,2.795
					C116.46,350.557,114.106,351.055,114.106,351.055z"/>
				<path style="fill:#f73c4d;" d="M115.842,344.56c-1.972-1.157-6.183-2.809-9.752-2.715c-1.125,0.03-1.94-1.051-1.536-2.102
					l0.011-0.029c0.226-0.586,0.78-0.976,1.408-0.993c2.298-0.06,7.856,0.162,11.386,3.387
					C118.218,344.184,115.842,344.56,115.842,344.56z"/>
				<path style="opacity:0.3;" d="M114.106,351.055c-2.029-1.054-6.319-2.486-9.879-2.207c-1.122,0.088-1.992-0.95-1.643-2.02
					l0.009-0.029c0.195-0.597,0.728-1.015,1.354-1.064c2.292-0.179,7.854-0.244,11.546,2.795
					C116.46,350.557,114.106,351.055,114.106,351.055z"/>
				<path style="opacity:0.3;" d="M115.842,344.56c-1.972-1.157-6.183-2.809-9.752-2.715c-1.125,0.03-1.94-1.051-1.536-2.102
					l0.011-0.029c0.226-0.586,0.78-0.976,1.408-0.993c2.298-0.06,7.856,0.162,11.386,3.387
					C118.218,344.184,115.842,344.56,115.842,344.56z"/>
			</g>
			<g>
				<path id="XMLID_426_" style="fill:#FFA8A7;" d="M263.417,367.627l18.803-7.46c-0.315-4.844-1.513-11.311-0.271-24.039
					l-21.331-4.062v21.362L263.417,367.627z"/>
				<g>
					<path id="XMLID_425_" style="fill:#263238;" d="M317.08,384.144c0.543,1.135,0.385,3.263-0.259,4.613
						c-0.644,1.349-7.694,5.325-17.202,4.683c-9.508-0.641-16.038-4.472-19.664-6.873c-3.625-2.4-7.4-2.849-12.108-3.118
						c-4.709-0.27-10.892-2.617-11.925-4.819c-1.033-2.202,0.156-5.995,0.156-5.995L317.08,384.144z"/>
					<path id="XMLID_424_" style="fill:#37474F;" d="M278.708,354.467c0.248-0.053,0.498-0.105,0.752-0.156
						c0.414-0.082,0.844-0.165,1.254-0.068c0.466,0.111,0.849,0.439,1.174,0.792c1.023,1.111,1.639,2.526,2.429,3.814
						c1.993,3.252,6.177,5.943,10.747,8.401c3.106,1.67,6.15,2.965,9.357,4.408c3.271,1.471,7.614,2.37,10.173,4.096
						c3.732,2.515,4.213,8.834-0.038,11.329c-3.667,2.152-13.317,4.485-23.438,1.618c-5.513-1.562-11.633-7.452-18.869-8.019
						c-4.602-0.36-13.304-1.653-16.266-5.147c-1.095-1.55,0.367-6.463,1.568-10.704c1.31-4.629,1.795-12.792,3.329-12.385
						c0,0-0.416,1.155,0.182,1.772c0.567,0.587,2.713,1.856,3.331,2.384c1.138,0.971,1.837,2.344,2.545,3.662
						c0.307,0.57,0.671,1.178,1.307,1.416c0.776,0.291,1.356-0.198,2.035-0.51c0.853-0.392,1.849-0.463,2.749-0.196
						c-0.088-0.917-0.251-1.826-0.485-2.716c-0.076-0.288-0.159-0.593-0.068-0.876c0.092-0.287,0.343-0.49,0.589-0.662
						C274.84,355.475,276.673,354.906,278.708,354.467z"/>
					<path id="XMLID_423_" style="fill:#f73c4d;" d="M290.766,364.748c0,0-0.661-1.765-3.398-2.275
						c-2.094-0.39-5.792,1.153-8.091,3.047c-0.941,0.775-0.819,2.247,0.248,2.837l0,0c0.635,0.351,1.413,0.259,1.961-0.217
						C282.993,366.828,286.372,364.445,290.766,364.748z"/>
					<path id="XMLID_422_" style="fill:#f73c4d;" d="M297.256,368.382c0,0-1.353-2.115-4.027-2.074c0,0-5.468,0.157-8.852,3.312
						c-0.863,0.805-0.804,2.174,0.231,2.742l0,0c0.615,0.338,1.365,0.248,1.888-0.219
						C288.021,370.781,291.078,367.92,297.256,368.382z"/>
					<path id="XMLID_415_" style="fill:#f73c4d;" d="M304.421,371.658c0,0-1.508-1.915-4.182-1.874c0,0-5.095,0.19-8.478,3.345
						c-0.863,0.805-0.804,2.174,0.231,2.743l0,0c0.615,0.338,1.365,0.248,1.888-0.219
						C295.405,374.291,298.243,371.196,304.421,371.658z"/>
					<path id="XMLID_406_" style="opacity:0.3;" d="M290.766,364.748c0,0-0.661-1.765-3.398-2.275
						c-2.094-0.39-5.792,1.153-8.091,3.047c-0.941,0.775-0.819,2.247,0.248,2.837l0,0c0.635,0.351,1.413,0.259,1.961-0.217
						C282.993,366.828,286.372,364.445,290.766,364.748z"/>
					<path id="XMLID_404_" style="opacity:0.3;" d="M297.256,368.382c0,0-1.353-2.115-4.027-2.074c0,0-5.468,0.157-8.852,3.312
						c-0.863,0.805-0.804,2.174,0.231,2.742l0,0c0.615,0.338,1.365,0.248,1.888-0.219
						C288.021,370.781,291.078,367.92,297.256,368.382z"/>
					<path id="XMLID_380_" style="opacity:0.3;" d="M304.421,371.658c0,0-1.508-1.915-4.182-1.874c0,0-5.095,0.19-8.478,3.345
						c-0.863,0.805-0.804,2.174,0.231,2.743l0,0c0.615,0.338,1.365,0.248,1.888-0.219
						C295.405,374.291,298.243,371.196,304.421,371.658z"/>
				</g>
			</g>
			<path style="fill:#f73c4d;" d="M276.269,260.358c-14.295-3.209-48.448-10.348-48.448-10.348l0.553-9.117
				c-12.356,6.398-38.385,4.59-50.378-4.912l-1.895,9.668c0,0-6.717,7.736-11.745,17.683c-2.742,5.425-7.327,13.894-2.765,33.624
				c2.679,11.587,6.254,42.098,6.254,42.098l-34.963-12.895c0,0-3.028,0.51-5.545,7.065c-1.492,3.886-2.046,7.615-0.475,9.546
				c12.797,10.104,33.538,26.621,54.496,35.881c13.991,5.362,21.441-6.414,22.126-10.771c2.624-16.7,5.662-70.357,5.662-70.357
				l46.713-1.492c-1.544,8.86,4.758,43.478,4.758,43.478s11.513,4.99,21.055-0.118c0,0,6.381-39.845,6.99-53.129
				C289.342,271.442,290.105,263.464,276.269,260.358z"/>
			<path style="opacity:0.15;" d="M255.859,296.03c0.001-2.391,1.588-10.745,6.999-15.19c0,0-7.415,1.328-10.811,15.311
				L255.859,296.03z"/>
			<path style="opacity:0.15;" d="M167.845,339.054c0,0,0.952,13.177,3.519,19.591c0,0-6.316-11.402-7.038-20.889L167.845,339.054z"
				/>
			<path style="opacity:0.15;" d="M227.813,250.01l0.553-9.113c-12.357,6.392-38.369,4.584-50.363-4.911
				c-0.003-0.001-0.005-0.002-0.008-0.003l-1.894,9.666c0,0-0.004,0.004-0.004,0.005c0.093,0.097,7.794,8.051,27.814,9.089
				C224.055,255.787,227.813,250.01,227.813,250.01z"/>
			<path style="opacity:0.15;" d="M209.147,297.523c0,0,0.318-15.048-12.247-26.081c0,0,10.764,4.957,14.359,20.824
				c0,0,8.023-3.724,12.179-14.907c0,0-1.279,11.183-7.718,17.535l19.416,1.798L209.147,297.523z"/>
		</g>
		<g>
			<g>
				<path style="fill:#263238;" d="M202.851,95.268L202.851,95.268c-17.262,0-31.255,13.993-31.255,31.255l0,0
					c0,17.262,13.993,31.255,31.255,31.255l0,0c17.262,0,31.255-13.993,31.255-31.255l0,0
					C234.106,109.261,220.113,95.268,202.851,95.268z"/>
				<path style="fill:#263238;" d="M170.254,114.309c1.127-0.05,2.259,0.012,3.375,0.19c0.378,0.061,0.787,0.153,1.024,0.454
					c0.169,0.215,0.218,0.498,0.252,0.769c0.209,1.663,0.137,3.582-0.469,5.165c-0.443,1.156-1.818,1.75-2.688,2.592
					c-3.38,3.274-3.648,8.707-2.32,13.221c1.328,4.514,3.959,8.525,5.735,12.883c1.803,4.423,2.644,9.613,0.199,13.96
					c-0.948,1.686-2.679,2.961-2.473,5.03c0.244,2.451,2.379,4.796,3.304,7.03c1.069,2.582,1.316,5.454,1.032,8.234
					c-0.349,3.426-1.526,6.828-3.74,9.464c-3.247,3.867-8.699,5.739-13.637,4.683c-1.031-0.221-2.06-0.57-2.885-1.228
					c-1.476-1.177-2.059-3.111-2.857-4.822c-2.577-5.524-8.009-9.547-9.656-15.416c-1.741-6.208,1.243-12.749,4.903-18.058
					c1.71-2.48,3.62-4.918,4.456-7.812c1.129-3.913,0.144-8.075-0.115-12.139c-0.252-3.966,0.206-7.975,1.345-11.782
					c0.826-2.76,2.095-5.94,4.247-7.917C162.259,116.081,166.228,114.487,170.254,114.309z"/>
			</g>
			<g>
				<g id="XMLID_747_">
					<path id="XMLID_748_" style="fill:#FFA8A7;" d="M222.441,109.573c3.425,2.043,7.633,10.696,7.139,28.798
						c-0.418,15.342-5.407,19.111-7.909,20.194c-2.501,1.082-7.314,0.398-11.994-0.402l-0.038,9.208c0,0,6.44,7.542,6.015,11.764
						c-0.424,4.221-9.366,5.182-15.404,1.032c-6.038-4.15-11.106-12.211-11.106-12.211l0.193-21.173c0,0-2.767,2.665-7.422-1.439
						c-3.843-3.388-5.119-9.081-2.101-12.12c3.018-3.039,8.571-2.185,10.683,2.175c0,0,7.466,0.304,17.432-5.118
						C217.896,124.858,221.755,115.519,222.441,109.573z"/>
				</g>
				<g id="XMLID_745_">
					<path id="XMLID_746_" style="fill:#263238;" d="M212.466,134.445c0.051,1.106-0.77,2.04-1.835,2.086
						c-1.065,0.046-1.969-0.813-2.02-1.919c-0.051-1.106,0.77-2.039,1.835-2.085C211.511,132.48,212.415,133.34,212.466,134.445z"/>
				</g>
				<g id="XMLID_743_" style="opacity:0.5;">
					<path id="XMLID_744_" style="fill:#F28F8F;" d="M212.927,147.454l4.475,1.448c-0.378,1.281-1.685,1.995-2.921,1.596
						C213.245,150.097,212.55,148.735,212.927,147.454z"/>
				</g>
				<g id="XMLID_728_">
					<path id="XMLID_729_" style="fill:#263238;" d="M228.31,128.586l-3.892-2.722c0.717-1.112,2.17-1.404,3.245-0.652
						C228.736,125.964,229.027,127.475,228.31,128.586z"/>
				</g>
				<g id="XMLID_726_">
					<path id="XMLID_727_" style="fill:#263238;" d="M227.391,133.112c0.051,1.106-0.771,2.039-1.835,2.086
						c-1.065,0.046-1.969-0.813-2.019-1.919c-0.051-1.106,0.77-2.04,1.834-2.086C226.436,131.147,227.34,132.006,227.391,133.112z"
						/>
				</g>
				<g id="XMLID_724_" style="opacity:0.5;">
					<polygon id="XMLID_725_" style="fill:#F28F8F;" points="218.293,131.969 218.553,143.585 224.673,141.717 					"/>
				</g>
				<g id="XMLID_722_" style="opacity:0.5;">
					<path id="XMLID_723_" style="fill:#F28F8F;" d="M209.678,158.162c-4.931-0.668-15.07-3.626-16.636-7.646
						c0,0,0.517,2.524,3.538,5.136c3.022,2.611,13.086,5.581,13.086,5.581L209.678,158.162z"/>
				</g>
			</g>
		</g>
		<g>
			<path style="fill:#FFA8A7;" d="M176.097,167.47c-9.681,0.685-13.675,1.92-19.064,13.876
				c-4.848,10.756-16.449,38.567-19.352,44.773c-2.902,6.206-3.447,8.693-1.025,15.179c1.975,5.289,18.336,35.68,20.123,40.11
				c1.787,4.429,2.581,8.909,5.63,14.071c3.048,5.163,7.87,10.198,11.678,11.391c5.65,1.771,12.962-0.694,13.217-4.098
				c0.255-3.404-8.29-9.106-10.602-16.674c0,0,2.538,1.689,4.836,2.628c2.297,0.939,4.85,0.736,5.615-0.566
				c0.766-1.302-1.531-2.096-3.574-4.124c-1.219-1.21-3.38-3.924-6.139-6.326c-1.865-1.623-4.934-2.103-6.306-3.881
				c-0.748-0.95-4.107-9.184-6.629-16.517c-3.124-9.082-7.233-21.181-7.233-21.181l16.815-35.046
				C174.088,201.085,187.31,187.971,176.097,167.47z"/>
			<g>
				<path style="fill:#37474F;" d="M156.779,281.408c0,0,3.875-7.83,14.356-7.578l-2.769-6.163c0,0-10.232,0.724-14.547,7.647
					L156.779,281.408z"/>
				<path style="fill:#263238;" d="M155.652,274.756l2.28,3.194c0.698,0.978,2.042,1.186,3.003,0.463l4.023-3.026
					c0.96-0.722,1.192-2.114,0.517-3.109l-2.09-3.082c-0.675-0.995-2.013-1.232-2.988-0.531l-4.242,3.049
					C155.179,272.416,154.954,273.778,155.652,274.756z"/>
				<path style="fill:#455A64;" d="M154.897,274.678l2.28,3.194c0.698,0.978,2.042,1.186,3.003,0.463l4.023-3.026
					c0.96-0.722,1.192-2.114,0.517-3.109l-2.09-3.082c-0.675-0.995-2.013-1.232-2.988-0.531l-4.241,3.049
					C154.424,272.339,154.199,273.7,154.897,274.678z"/>
				<path style="fill:#f73c4d;" d="M164.278,273.626c-0.042,0.413-0.25,0.787-0.57,1.027l-4.022,3.026
					c-0.286,0.216-0.634,0.304-0.982,0.251c-0.346-0.053-0.651-0.242-0.86-0.533l-2.28-3.194c-0.192-0.27-0.279-0.601-0.245-0.93
					c0.04-0.388,0.244-0.741,0.56-0.968l4.242-3.05c0.289-0.209,0.637-0.289,0.981-0.228c0.345,0.061,0.646,0.258,0.848,0.554
					l2.09,3.081C164.229,272.939,164.313,273.282,164.278,273.626L164.278,273.626z"/>
			</g>
		</g>
	</g>
</g>
</svg>
